<svg width="72" height="72" viewBox="0 0 72 72" fill="none" xmlns="http://www.w3.org/2000/svg">
<path fill-rule="evenodd" clip-rule="evenodd" d="M36.0969 27.8086C33.2931 27.8086 31.0117 30.0899 31.0117 32.8937C31.0117 35.6976 33.2931 37.9788 36.0969 37.9788C38.9007 37.9788 41.182 35.6976 41.182 32.8937C41.182 30.0899 38.9007 27.8086 36.0969 27.8086ZM36.0948 40.5931C31.8514 40.5931 28.3984 37.1401 28.3984 32.8954C28.3984 28.6522 31.8514 25.1992 36.0948 25.1992C40.338 25.1992 43.791 28.6522 43.791 32.8954C43.791 37.1401 40.338 40.5931 36.0948 40.5931Z" fill="white"/>
<mask id="mask0" mask-type="alpha" maskUnits="userSpaceOnUse" x="20" y="43" width="32" height="23">
<path fill-rule="evenodd" clip-rule="evenodd" d="M20.5508 43.1523H51.5628V65.7594H20.5508V43.1523Z" fill="white"/>
</mask>
<g mask="url(#mask0)">
<path fill-rule="evenodd" clip-rule="evenodd" d="M44.4411 52.4416C45.0203 52.4416 45.4927 52.9127 45.4927 53.4933V63.1489H48.9496V53.4497C48.9496 49.2302 45.5204 45.7983 41.3074 45.7983L30.8179 45.7627C26.5957 45.764 23.1599 49.1999 23.1599 53.4233V63.1489H26.6155V53.4933C26.6155 52.9127 27.0866 52.4416 27.6671 52.4416C28.2463 52.4416 28.7174 52.9127 28.7174 53.4933V63.1489H43.3895V53.4933C43.3895 52.9127 43.8619 52.4416 44.4411 52.4416ZM23.0812 65.76C21.6853 65.76 20.5506 64.6239 20.5506 63.228V53.4232C20.5506 47.7602 25.1566 43.1528 30.8196 43.1528L41.3119 43.1871C46.9643 43.1898 51.5612 47.7946 51.5625 53.4496V63.2558C51.5625 64.6595 50.4502 65.76 49.0306 65.76H23.0812Z" fill="white"/>
</g>
<mask id="mask1" mask-type="alpha" maskUnits="userSpaceOnUse" x="14" y="5" width="17" height="16">
<path fill-rule="evenodd" clip-rule="evenodd" d="M14.8094 5H30.202V20.3935H14.8094V5Z" fill="white"/>
</mask>
<g mask="url(#mask1)">
<path fill-rule="evenodd" clip-rule="evenodd" d="M22.5038 7.60913C19.7 7.60913 17.4188 9.89044 17.4188 12.6956C17.4188 15.4994 19.7 17.7807 22.5038 17.7807C25.3077 17.7807 27.589 15.4994 27.589 12.6956C27.589 9.89044 25.3077 7.60913 22.5038 7.60913ZM22.5056 20.3936C18.261 20.3936 14.8094 16.9406 14.8094 12.6974C14.8094 8.45272 18.261 4.99976 22.5056 4.99976C26.749 4.99976 30.2019 8.45272 30.2019 12.6974C30.2019 16.9406 26.749 20.3936 22.5056 20.3936Z" fill="white"/>
</g>
<path fill-rule="evenodd" clip-rule="evenodd" d="M9.53068 45.3251C8.13472 45.3251 7 44.189 7 42.7944V32.9883C7 27.3253 11.6062 22.7179 17.2692 22.7179L27.7706 22.7192C28.5253 22.7192 29.2483 22.7983 29.9832 22.962C30.6865 23.1176 31.1311 23.8169 30.9742 24.5202C30.8435 25.1126 30.3079 25.5414 29.7022 25.5414C29.6059 25.5414 29.5095 25.5322 29.4173 25.5098C28.8697 25.3897 28.3313 25.3304 27.7719 25.3304L17.2692 25.329C13.0457 25.329 9.60984 28.7649 9.60984 32.9883V42.7139H13.0668V33.0583C13.0668 32.4777 13.5378 32.0066 14.1184 32.0066C14.6989 32.0066 15.1699 32.4777 15.1699 33.0583V42.7139H20.5269C21.2459 42.7139 21.8317 43.2984 21.8317 44.0189C21.8317 44.7392 21.2459 45.3251 20.5269 45.3251H9.53068Z" fill="white"/>
<mask id="mask2" mask-type="alpha" maskUnits="userSpaceOnUse" x="41" y="5" width="17" height="16">
<path fill-rule="evenodd" clip-rule="evenodd" d="M41.9491 5H57.3417V20.3935H41.9491V5Z" fill="white"/>
</mask>
<g mask="url(#mask2)">
<path fill-rule="evenodd" clip-rule="evenodd" d="M49.6437 7.60913C46.8398 7.60913 44.5585 9.89044 44.5585 12.6956C44.5585 15.4994 46.8398 17.7807 49.6437 17.7807C52.4474 17.7807 54.7287 15.4994 54.7287 12.6956C54.7287 9.89044 52.4474 7.60913 49.6437 7.60913ZM49.6454 20.3936C45.4007 20.3936 41.9491 16.9406 41.9491 12.6974C41.9491 8.45272 45.4007 4.99976 49.6454 4.99976C53.8887 4.99976 57.3416 8.45272 57.3416 12.6974C57.3416 16.9406 53.8887 20.3936 49.6454 20.3936Z" fill="white"/>
</g>
<path fill-rule="evenodd" clip-rule="evenodd" d="M51.5889 45.3251C50.8698 45.3251 50.284 44.7392 50.284 44.0189C50.284 43.2984 50.8698 42.7139 51.5889 42.7139H56.9458V33.0583C56.9458 32.4777 57.4168 32.0066 57.9974 32.0066C58.5779 32.0066 59.0489 32.4777 59.0489 33.0583V42.7139H62.5046V32.9883C62.5046 30.9471 61.7063 29.0247 60.2576 27.576C58.8088 26.1272 56.8878 25.329 54.8466 25.329L44.3532 25.333C43.7937 25.333 43.2791 25.3897 42.7329 25.5111C42.6378 25.5322 42.5416 25.5428 42.4478 25.5428C41.8423 25.5428 41.3066 25.1126 41.1746 24.5202C41.0189 23.8169 41.4635 23.1176 42.1655 22.962C42.8925 22.7996 43.6076 22.7218 44.3518 22.7218L54.8453 22.7179C57.5844 22.7179 60.1626 23.7866 62.1048 25.7289C64.0471 27.6723 65.1158 30.2492 65.1158 32.9871V42.7944C65.1158 44.189 63.9811 45.3251 62.5851 45.3251H51.5889Z" fill="white"/>
</svg>
